<svg width="1920" height="950" viewBox="0 0 1920 950" fill="none" xmlns="http://www.w3.org/2000/svg">
<rect width="1920" height="950" fill="#E6E7EE"/>
<rect width="1920" height="651" fill="#565C82"/>
<path fill-rule="evenodd" clip-rule="evenodd" d="M486.338 446.482L432.856 393H540.001V500.144L486.519 446.663V513.001L420 446.482H486.338Z" fill="#484F76"/>
<path fill-rule="evenodd" clip-rule="evenodd" d="M1249 650V630.668L1535 311.508V339.758L1256.99 650H1249ZM1275.54 650L1535 360.449V388.698L1300.85 650H1275.54ZM1318.5 650L1535 408.39V436.64L1343.81 650H1318.5ZM1361.46 650L1535 456.332V484.582L1386.77 650H1361.46ZM1405.31 650L1535 505.272V533.522L1430.62 650H1405.31ZM1449.17 650L1535 554.213V582.462L1474.48 650H1449.17ZM1493.02 650L1535 603.153V631.403L1518.33 650H1493.02ZM1249 581.727L1535 262.568V290.818L1249 609.977V581.727ZM1249 532.787L1535 213.628V241.877L1249 561.036V532.787ZM1249 484.845L1535 165.686V193.936L1249 513.095V484.845ZM1249 436.904L1535 117.745V145.994L1249 465.153V436.904ZM1249 387.963L1535 68.8042V97.0537L1249 416.213V387.963ZM1249 339.023L1535 19.8638V48.1134L1249 367.272V339.023ZM1249 318.332V290.083L1508.95 0H1534.26L1249 318.332ZM1249 270.391V242.141L1465.99 0H1491.3L1249 270.391ZM1249 222.449V194.199L1423.03 0H1448.34L1249 222.449ZM1249 173.509V145.259L1379.17 0H1404.48L1249 173.509ZM1249 124.568V96.3186L1335.31 0H1360.63L1249 124.568ZM1249 75.6278V47.3783L1291.46 0H1316.77L1249 75.6278ZM1249 27.6863V0H1273.81L1249 27.6863Z" fill="#484F76"/>
<path fill-rule="evenodd" clip-rule="evenodd" d="M1381.49 782.5C1382.04 782.5 1382.49 782.948 1382.49 783.5C1382.49 784.052 1382.04 784.5 1381.49 784.5C1380.94 784.5 1380.49 784.052 1380.49 783.5C1380.49 782.948 1380.94 782.5 1381.49 782.5ZM1395.49 782.5C1396.04 782.5 1396.49 782.948 1396.49 783.5C1396.49 784.052 1396.04 784.5 1395.49 784.5C1394.94 784.5 1394.49 784.052 1394.49 783.5C1394.49 782.948 1394.94 782.5 1395.49 782.5ZM1409.49 782.5C1410.04 782.5 1410.49 782.948 1410.49 783.5C1410.49 784.052 1410.04 784.5 1409.49 784.5C1408.94 784.5 1408.49 784.052 1408.49 783.5C1408.49 782.948 1408.94 782.5 1409.49 782.5ZM1423.5 782.5C1424.05 782.5 1424.5 782.948 1424.5 783.5C1424.5 784.052 1424.05 784.5 1423.5 784.5C1422.95 784.5 1422.5 784.052 1422.5 783.5C1422.5 782.948 1422.95 782.5 1423.5 782.5ZM1437.5 782.5C1438.05 782.5 1438.5 782.948 1438.5 783.5C1438.5 784.052 1438.05 784.5 1437.5 784.5C1436.95 784.5 1436.5 784.052 1436.5 783.5C1436.5 782.948 1436.95 782.5 1437.5 782.5ZM1451.5 782.5C1452.05 782.5 1452.5 782.948 1452.5 783.5C1452.5 784.052 1452.05 784.5 1451.5 784.5C1450.95 784.5 1450.5 784.052 1450.5 783.5C1450.5 782.948 1450.95 782.5 1451.5 782.5ZM1465.5 782.5C1466.05 782.5 1466.5 782.948 1466.5 783.5C1466.5 784.052 1466.05 784.5 1465.5 784.5C1464.95 784.5 1464.5 784.052 1464.5 783.5C1464.5 782.948 1464.95 782.5 1465.5 782.5ZM1381.49 767.99C1382.32 767.99 1383 768.668 1383 769.502C1383 770.336 1382.32 771.014 1381.49 771.014C1380.66 771.014 1379.98 770.336 1379.98 769.502C1379.98 768.668 1380.66 767.99 1381.49 767.99ZM1437.5 767.99C1438.33 767.99 1439.01 768.668 1439.01 769.502C1439.01 770.336 1438.33 771.014 1437.5 771.014C1436.67 771.014 1435.99 770.336 1435.99 769.502C1435.99 768.668 1436.67 767.99 1437.5 767.99ZM1409.49 767.99C1410.32 767.99 1411 768.668 1411 769.502C1411 770.336 1410.32 771.014 1409.49 771.014C1408.66 771.014 1407.98 770.336 1407.98 769.502C1407.98 768.668 1408.66 767.99 1409.49 767.99ZM1423.5 767.99C1424.33 767.99 1425.01 768.668 1425.01 769.502C1425.01 770.336 1424.33 771.014 1423.5 771.014C1422.67 771.014 1421.99 770.336 1421.99 769.502C1421.99 768.668 1422.67 767.99 1423.5 767.99ZM1451.5 767.99C1452.33 767.99 1453.01 768.668 1453.01 769.502C1453.01 770.336 1452.33 771.014 1451.5 771.014C1450.67 771.014 1449.99 770.336 1449.99 769.502C1449.99 768.668 1450.67 767.99 1451.5 767.99ZM1367.49 768.01C1368.31 768.01 1368.98 768.679 1368.98 769.502C1368.98 770.325 1368.31 770.994 1367.49 770.994C1366.67 770.994 1366 770.325 1366 769.502C1366 768.679 1366.67 768.01 1367.49 768.01ZM1395.49 768.01C1396.31 768.01 1396.98 768.679 1396.98 769.502C1396.98 770.325 1396.31 770.994 1395.49 770.994C1394.67 770.994 1394 770.325 1394 769.502C1394 768.679 1394.67 768.01 1395.49 768.01ZM1465.5 768.502C1466.05 768.502 1466.5 768.95 1466.5 769.502C1466.5 770.054 1466.05 770.502 1465.5 770.502C1464.95 770.502 1464.5 770.054 1464.5 769.502C1464.5 768.95 1464.95 768.502 1465.5 768.502ZM1451.5 752.992C1452.33 752.992 1453.01 753.669 1453.01 754.503C1453.01 755.337 1452.33 756.015 1451.5 756.015C1450.67 756.015 1449.99 755.337 1449.99 754.503C1449.99 753.669 1450.67 752.992 1451.5 752.992ZM1465.5 753.504C1466.05 753.504 1466.5 753.951 1466.5 754.503C1466.5 755.055 1466.05 755.503 1465.5 755.503C1464.95 755.503 1464.5 755.055 1464.5 754.503C1464.5 753.951 1464.95 753.504 1465.5 753.504ZM1451.5 737.993C1452.33 737.993 1453.01 738.671 1453.01 739.505C1453.01 740.339 1452.33 741.017 1451.5 741.017C1450.67 741.017 1449.99 740.339 1449.99 739.505C1449.99 738.671 1450.67 737.993 1451.5 737.993ZM1465.5 738.505C1466.05 738.505 1466.5 738.953 1466.5 739.505C1466.5 740.057 1466.05 740.505 1465.5 740.505C1464.95 740.505 1464.5 740.057 1464.5 739.505C1464.5 738.953 1464.95 738.505 1465.5 738.505ZM1451.5 722.995C1452.33 722.995 1453.01 723.673 1453.01 724.507C1453.01 725.341 1452.33 726.019 1451.5 726.019C1450.67 726.019 1449.99 725.341 1449.99 724.507C1449.99 723.673 1450.67 722.995 1451.5 722.995ZM1465.5 723.507C1466.05 723.507 1466.5 723.955 1466.5 724.507C1466.5 725.059 1466.05 725.507 1465.5 725.507C1464.95 725.507 1464.5 725.059 1464.5 724.507C1464.5 723.955 1464.95 723.507 1465.5 723.507ZM1451.5 707.997C1452.33 707.997 1453.01 708.675 1453.01 709.508C1453.01 710.342 1452.33 711.02 1451.5 711.02C1450.67 711.02 1449.99 710.342 1449.99 709.508C1449.99 708.675 1450.67 707.997 1451.5 707.997ZM1465.5 708.509C1466.05 708.509 1466.5 708.957 1466.5 709.508C1466.5 710.06 1466.05 710.508 1465.5 710.508C1464.95 710.508 1464.5 710.06 1464.5 709.508C1464.5 708.957 1464.95 708.509 1465.5 708.509ZM1451.5 692.998C1452.33 692.998 1453.01 693.676 1453.01 694.51C1453.01 695.344 1452.33 696.022 1451.5 696.022C1450.67 696.022 1449.99 695.344 1449.99 694.51C1449.99 693.676 1450.67 692.998 1451.5 692.998ZM1465.5 693.51C1466.05 693.51 1466.5 693.958 1466.5 694.51C1466.5 695.062 1466.05 695.51 1465.5 695.51C1464.95 695.51 1464.5 695.062 1464.5 694.51C1464.5 693.958 1464.95 693.51 1465.5 693.51ZM1451.5 678C1452.33 678 1453.01 678.678 1453.01 679.512C1453.01 680.346 1452.33 681.024 1451.5 681.024C1450.67 681.024 1449.99 680.346 1449.99 679.512C1449.99 678.678 1450.67 678 1451.5 678Z" fill="#3B426A"/>
<path d="M1475.5 709.5C1475.5 709.5 1475.5 709 1475 709C1474.5 709 1474.5 709.517 1474.5 709.508C1474.5 709.5 1474.5 710 1475 710C1475 710 1475.5 710 1475.5 709.5Z" fill="#3B426A"/>
<path d="M1475.5 724.507C1475.5 724.507 1475.5 724.007 1475 724.007C1474.5 724.007 1474.5 724.524 1474.5 724.515C1474.5 724.507 1474.5 725.007 1475 725.007C1475 725.007 1475.5 725.007 1475.5 724.507Z" fill="#3B426A"/>
<path d="M1475.5 739.505C1475.5 739.505 1475.5 739.005 1475 739.005C1474.5 739.005 1474.5 739.522 1474.5 739.514C1474.5 739.505 1474.5 740.005 1475 740.005C1475 740.005 1475.5 740.005 1475.5 739.505Z" fill="#3B426A"/>
<path d="M1475.5 754.495C1475.5 754.495 1475.5 753.995 1475 753.995C1474.5 753.995 1474.5 754.512 1474.5 754.503C1474.5 754.495 1474.5 754.995 1475 754.995C1475 754.995 1475.5 754.995 1475.5 754.495Z" fill="#3B426A"/>
<path d="M1475.5 769.502C1475.5 769.502 1475.5 769.002 1475 769.002C1474.5 769.002 1474.5 769.519 1474.5 769.51C1474.5 769.502 1474.5 770.002 1475 770.002C1475 770.002 1475.5 770.002 1475.5 769.502Z" fill="#3B426A"/>
<path d="M1475.5 783.5C1475.5 783.5 1475.5 783 1475 783C1474.5 783 1474.5 783.517 1474.5 783.509C1474.5 783.5 1474.5 784 1475 784C1475 784 1475.5 784 1475.5 783.5Z" fill="#3B426A"/>
<path d="M1475.5 796C1475.5 796 1475.5 795.5 1475 795.5C1474.5 795.5 1474.5 796.017 1474.5 796.008C1474.5 796 1474.5 796.5 1475 796.5C1475 796.5 1475.5 796.5 1475.5 796Z" fill="#3B426A"/>
<path d="M1466 796C1466 796 1466 795.5 1465.5 795.5C1465 795.5 1465 796.017 1465 796.008C1465 796 1465 796.5 1465.5 796.5C1465.5 796.5 1466 796.5 1466 796Z" fill="#3B426A"/>
<path d="M1452 796C1452 796 1452 795.5 1451.5 795.5C1451 795.5 1451 796.017 1451 796.008C1451 796 1451 796.5 1451.5 796.5C1451.5 796.5 1452 796.5 1452 796Z" fill="#3B426A"/>
<path d="M1438 796C1438 796 1438 795.5 1437.5 795.5C1437 795.5 1437 796.017 1437 796.008C1437 796 1437 796.5 1437.5 796.5C1437.5 796.5 1438 796.5 1438 796Z" fill="#3B426A"/>
<path d="M1424 796C1424 796 1424 795.5 1423.5 795.5C1423 795.5 1423 796.017 1423 796.008C1423 796 1423 796.5 1423.5 796.5C1423.5 796.5 1424 796.5 1424 796Z" fill="#3B426A"/>
<path d="M1409.99 796C1409.99 796 1409.99 795.5 1409.49 795.5C1408.99 795.5 1408.99 796.017 1408.99 796.008C1408.99 796 1408.99 796.5 1409.49 796.5C1409.49 796.5 1409.99 796.5 1409.99 796Z" fill="#3B426A"/>
<path d="M1395.99 796C1395.99 796 1395.99 795.5 1395.49 795.5C1394.99 795.5 1394.99 796.017 1394.99 796.008C1394.99 796 1394.99 796.5 1395.49 796.5C1395.49 796.5 1395.99 796.5 1395.99 796Z" fill="#3B426A"/>
<path fill-rule="evenodd" clip-rule="evenodd" d="M480 42.448C480 41.0972 481.097 40 482.448 40H507.748C507.748 40 519.926 40.9377 519.926 51.8252C519.926 62.7145 507.976 63.4293 507.976 63.4293C507.976 63.4293 513.472 68.7659 517.276 72.4603C517.86 73.0277 518.045 73.8968 517.74 74.6529C517.437 75.4123 516.703 75.9094 515.891 75.9094H508.377C507.873 75.9094 507.389 75.7123 507.026 75.3609C504.804 73.2026 496.684 65.3185 494.544 63.2408C494.213 62.9202 493.769 62.7385 493.306 62.7385C492.216 62.7385 491.333 63.6265 491.333 64.7236V73.8489C491.333 74.3923 491.117 74.9134 490.737 75.2974C490.354 75.6797 489.837 75.8974 489.297 75.8974H482.45C481.097 75.8974 480 74.8003 480 73.4477V55.991C480 54.6384 481.097 53.543 482.448 53.543H507.871C507.871 53.543 509.488 53.4744 509.488 52.1321C509.488 50.1967 507.701 50.3304 507.701 50.3304H482.448C481.097 50.3304 480 49.2349 480 47.8823V42.448V42.448Z" fill="white"/>
</svg>
